{"asset":{"version":"2.0","generator":"Created using the official Cinema 4D glTF Exporter 1.000x284978"},"scenes":[{"nodes":[0]}],"nodes":[{"name":"Man","translation":[0,0,0],"scale":[1,1,1],"rotation":[0,0,0,-1],"children":[1,2,3,4,5,6,7,8,9,10,11,12,13,14]},{"name":"Man-FullBody","translation":[0,0,0],"scale":[1,1,1],"rotation":[0,0,0,-1],"mesh":0},{"name":"Man-Skin","translation":[0,0,0],"scale":[1,1,1],"rotation":[0,0,0,-1],"mesh":1},{"name":"Man-FiveSenses","translation":[0,0,0],"scale":[1,1,1],"rotation":[0,0,0,-1],"mesh":2},{"name":"Man-Genitals","translation":[0,0,0],"scale":[1,1,1],"rotation":[0,0,0,-1],"mesh":3},{"name":"Man-Waist","translation":[0,0,0],"scale":[1,1,1],"rotation":[0,0,0,-1],"mesh":4},{"name":"Man-Hips","translation":[0,0,0],"scale":[1,1,1],"rotation":[0,0,0,-1],"mesh":5},{"name":"Man-Abdomen","translation":[0,0,0],"scale":[1,1,1],"rotation":[0,0,0,-1],"mesh":6},{"name":"Man-Back","translation":[0,0,0],"scale":[1,1,1],"rotation":[0,0,0,-1],"mesh":7},{"name":"Man-Chest","translation":[0,0,0],"scale":[1,1,1],"rotation":[0,0,0,-1],"mesh":8},{"name":"Man-Shoulder","translation":[0,0,0],"scale":[1,1,1],"rotation":[0,0,0,-1],"mesh":9},{"name":"Man-Legs","translation":[0,0,0],"scale":[1,1,1],"rotation":[0,0,0,-1],"mesh":10},{"name":"Man-Arms","translation":[0,0,0],"scale":[1,1,1],"rotation":[0,0,0,-1],"mesh":11},{"name":"Man-Neck","translation":[0,0,0],"scale":[1,1,1],"rotation":[0,0,0,-1],"mesh":12},{"name":"Man-Head","translation":[0,0,0],"scale":[1,1,1],"rotation":[0,0,0,-1],"mesh":13}],"meshes":[{"name":"Man-FullBody","primitives":[{"attributes":{"POSITION":1,"NORMAL":2},"indices":0,"material":0}]},{"name":"Man-Skin","primitives":[{"attributes":{"POSITION":4,"NORMAL":5},"indices":3,"material":1}]},{"name":"Man-FiveSenses","primitives":[{"attributes":{"POSITION":7,"NORMAL":8},"indices":6,"material":2}]},{"name":"Man-Genitals","primitives":[{"attributes":{"POSITION":10,"NORMAL":11},"indices":9,"material":3}]},{"name":"Man-Waist","primitives":[{"attributes":{"POSITION":13,"NORMAL":14},"indices":12,"material":4}]},{"name":"Man-Hips","primitives":[{"attributes":{"POSITION":16,"NORMAL":17},"indices":15,"material":5}]},{"name":"Man-Abdomen","primitives":[{"attributes":{"POSITION":19,"NORMAL":20},"indices":18,"material":6}]},{"name":"Man-Back","primitives":[{"attributes":{"POSITION":22,"NORMAL":23},"indices":21,"material":7}]},{"name":"Man-Chest","primitives":[{"attributes":{"POSITION":25,"NORMAL":26},"indices":24,"material":8}]},{"name":"Man-Shoulder","primitives":[{"attributes":{"POSITION":28,"NORMAL":29},"indices":27,"material":9}]},{"name":"Man-Legs","primitives":[{"attributes":{"POSITION":31,"NORMAL":32},"indices":30,"material":10}]},{"name":"Man-Arms","primitives":[{"attributes":{"POSITION":34,"NORMAL":35},"indices":33,"material":11}]},{"name":"Man-Neck","primitives":[{"attributes":{"POSITION":37,"NORMAL":38},"indices":36,"material":12}]},{"name":"Man-Head","primitives":[{"attributes":{"POSITION":40,"NORMAL":41},"indices":39,"material":13}]}],"accessors":[{"byteOffset":0,"bufferView":0,"min":[0],"count":6,"type":"SCALAR","componentType":5123,"max":[3]},{"byteOffset":0,"bufferView":1,"min":[-1.002581000328064,119.18046569824219,0],"count":4,"type":"VEC3","componentType":5126,"max":[0.9974190592765808,121.18046569824219,0]},{"byteOffset":12,"bufferView":1,"min":[0,0,-1],"count":4,"type":"VEC3","componentType":5126,"max":[0,0,-1]},{"byteOffset":0,"bufferView":2,"min":[0],"count":6,"type":"SCALAR","componentType":5123,"max":[3]},{"byteOffset":0,"bufferView":3,"min":[8.997419357299805,130.5584259033203,0],"count":4,"type":"VEC3","componentType":5126,"max":[10.997419357299805,132.5584259033203,0]},{"byteOffset":12,"bufferView":3,"min":[0,0,-1],"count":4,"type":"VEC3","componentType":5126,"max":[0,0,-1]},{"byteOffset":0,"bufferView":4,"min":[0],"count":5190,"type":"SCALAR","componentType":5123,"max":[1206]},{"byteOffset":0,"bufferView":5,"min":[-8.778946876525879,154.16091918945312,-1.8318006992340088],"count":1207,"type":"VEC3","componentType":5126,"max":[8.687723159790039,162.8107452392578,12.274261474609375]},{"byteOffset":12,"bufferView":5,"min":[-1,-0.9950000643730164,-0.9948750734329224],"count":1207,"type":"VEC3","componentType":5126,"max":[0.9978125691413879,0.9884688258171082,1]},{"byteOffset":0,"bufferView":6,"min":[0],"count":540,"type":"SCALAR","componentType":5123,"max":[116]},{"byteOffset":0,"bufferView":7,"min":[-9.2418794631958,81.89567565917969,0.9700051546096802],"count":117,"type":"VEC3","componentType":5126,"max":[9.136070251464844,96.39869689941406,10.405065536499023]},{"byteOffset":12,"bufferView":7,"min":[-0.9940937757492065,-0.9997813105583191,-0.045781251043081284],"count":117,"type":"VEC3","componentType":5126,"max":[0.994562566280365,0.08909375220537186,0.9957500696182251]},{"byteOffset":0,"bufferView":8,"min":[0],"count":336,"type":"SCALAR","componentType":5123,"max":[79]},{"byteOffset":0,"bufferView":9,"min":[-16.33249282836914,86.6003189086914,-4.500980377197266],"count":80,"type":"VEC3","componentType":5126,"max":[16.201414108276367,101.27776336669922,9.79708194732666]},{"byteOffset":12,"bufferView":9,"min":[-0.9846875667572021,-0.11265625804662704,-0.4792500138282776],"count":80,"type":"VEC3","componentType":5126,"max":[0.9846250414848328,0.21803125739097595,0.9957500696182251]},{"byteOffset":0,"bufferView":10,"min":[0],"count":1332,"type":"SCALAR","componentType":5123,"max":[261]},{"byteOffset":0,"bufferView":11,"min":[-14.156545639038086,81.88158416748047,-11.947042465209961],"count":262,"type":"VEC3","componentType":5126,"max":[14.002416610717773,102.82305908203125,1.6434506177902222]},{"byteOffset":12,"bufferView":11,"min":[-0.9940937757492065,-0.9997813105583191,-0.9997813105583191],"count":262,"type":"VEC3","componentType":5126,"max":[0.994562566280365,0.5254687666893005,0.10359375178813934]},{"byteOffset":0,"bufferView":12,"min":[0],"count":1728,"type":"SCALAR","componentType":5123,"max":[324]},{"byteOffset":0,"bufferView":13,"min":[-14.870420455932617,95.31739044189453,-3.6213111877441406],"count":325,"type":"VEC3","componentType":5126,"max":[14.631516456604004,123.75289916992188,12.090961456298828]},{"byteOffset":12,"bufferView":13,"min":[-0.9991562962532043,-0.3215000033378601,-0.4983125329017639],"count":325,"type":"VEC3","componentType":5126,"max":[0.9992188215255737,0.25318750739097595,0.9998750686645508]},{"byteOffset":0,"bufferView":14,"min":[0],"count":1920,"type":"SCALAR","componentType":5123,"max":[364]},{"byteOffset":0,"bufferView":15,"min":[-15.975690841674805,101.27424621582031,-13.003443717956543],"count":365,"type":"VEC3","componentType":5126,"max":[15.909461975097656,139.8545379638672,-0.5387380123138428]},{"byteOffset":12,"bufferView":15,"min":[-0.9991562962532043,-0.4854375123977661,-0.9997813105583191],"count":365,"type":"VEC3","componentType":5126,"max":[0.9969375729560852,0.5254687666893005,0.2421875149011612]},{"byteOffset":0,"bufferView":16,"min":[0],"count":1416,"type":"SCALAR","componentType":5123,"max":[273]},{"byteOffset":0,"bufferView":17,"min":[-15.35137939453125,122.07415008544922,-1.0927765369415283],"count":274,"type":"VEC3","componentType":5126,"max":[15.490102767944336,138.94232177734375,12.072244644165039]},{"byteOffset":12,"bufferView":17,"min":[-0.9996563196182251,-0.5080000162124634,-0.13671875],"count":274,"type":"VEC3","componentType":5126,"max":[0.9965625405311584,0.5403437614440918,0.999125063419342]},{"byteOffset":0,"bufferView":18,"min":[0],"count":2736,"type":"SCALAR","componentType":5123,"max":[594]},{"byteOffset":0,"bufferView":19,"min":[-24.441570281982422,129.00967407226562,-11.867240905761719],"count":595,"type":"VEC3","componentType":5126,"max":[24.969085693359375,149.16026306152344,7.828111171722412]},{"byteOffset":12,"bufferView":19,"min":[-0.9996563196182251,-0.9703750610351562,-0.9627813100814819],"count":595,"type":"VEC3","componentType":5126,"max":[0.9979062676429749,0.9071875214576721,0.9996563196182251]},{"byteOffset":0,"bufferView":20,"min":[0],"count":14208,"type":"SCALAR","componentType":5123,"max":[2731]},{"byteOffset":0,"bufferView":21,"min":[-17.349924087524414,-0.3300244212150574,-10.528712272644043],"count":2732,"type":"VEC3","componentType":5126,"max":[17.256305694580078,90.96320343017578,19.723134994506836]},{"byteOffset":12,"bufferView":21,"min":[-0.999625027179718,-0.9996563196182251,-0.998468816280365],"count":2732,"type":"VEC3","componentType":5126,"max":[0.999625027179718,0.9796875715255737,0.9988750219345093]},{"byteOffset":0,"bufferView":22,"min":[0],"count":21624,"type":"SCALAR","componentType":5123,"max":[4099]},{"byteOffset":0,"bufferView":23,"min":[-27.5535831451416,71.51923370361328,-10.812928199768066],"count":4100,"type":"VEC3","componentType":5126,"max":[27.671100616455078,139.07862854003906,12.120292663574219]},{"byteOffset":12,"bufferView":23,"min":[-0.9998750686645508,-0.9956563115119934,-0.999000072479248],"count":4100,"type":"VEC3","componentType":5126,"max":[0.999750018119812,0.8639062643051147,0.9958750605583191]},{"byteOffset":0,"bufferView":24,"min":[0],"count":1800,"type":"SCALAR","componentType":5123,"max":[349]},{"byteOffset":0,"bufferView":25,"min":[-9.710041999816895,144.37973022460938,-7.9163970947265625],"count":350,"type":"VEC3","componentType":5126,"max":[9.60202693939209,154.75328063964844,5.239489555358887]},{"byteOffset":12,"bufferView":25,"min":[-0.9996563196182251,-0.41193750500679016,-0.9999688267707825],"count":350,"type":"VEC3","componentType":5126,"max":[0.9996563196182251,0.8913750648498535,0.9996563196182251]},{"byteOffset":0,"bufferView":26,"min":[0],"count":10092,"type":"SCALAR","componentType":5123,"max":[1876]},{"byteOffset":0,"bufferView":27,"min":[-7.617247104644775,150.63482666015625,-8.180985450744629],"count":1877,"type":"VEC3","componentType":5126,"max":[7.525615215301514,172.6317901611328,11.638824462890625]},{"byteOffset":12,"bufferView":27,"min":[-1,-1,-1],"count":1877,"type":"VEC3","componentType":5126,"max":[1,1,0.9993125200271606]}],"bufferViews":[{"buffer":0,"byteOffset":0,"byteLength":12,"target":34963},{"buffer":0,"byteOffset":12,"byteLength":96,"target":34962,"byteStride":24},{"buffer":1,"byteOffset":0,"byteLength":12,"target":34963},{"buffer":1,"byteOffset":12,"byteLength":96,"target":34962,"byteStride":24},{"buffer":2,"byteOffset":0,"byteLength":10380,"target":34963},{"buffer":2,"byteOffset":10380,"byteLength":28968,"target":34962,"byteStride":24},{"buffer":3,"byteOffset":0,"byteLength":1080,"target":34963},{"buffer":3,"byteOffset":1080,"byteLength":2808,"target":34962,"byteStride":24},{"buffer":4,"byteOffset":0,"byteLength":672,"target":34963},{"buffer":4,"byteOffset":672,"byteLength":1920,"target":34962,"byteStride":24},{"buffer":5,"byteOffset":0,"byteLength":2664,"target":34963},{"buffer":5,"byteOffset":2664,"byteLength":6288,"target":34962,"byteStride":24},{"buffer":6,"byteOffset":0,"byteLength":3456,"target":34963},{"buffer":6,"byteOffset":3456,"byteLength":7800,"target":34962,"byteStride":24},{"buffer":7,"byteOffset":0,"byteLength":3840,"target":34963},{"buffer":7,"byteOffset":3840,"byteLength":8760,"target":34962,"byteStride":24},{"buffer":8,"byteOffset":0,"byteLength":2832,"target":34963},{"buffer":8,"byteOffset":2832,"byteLength":6576,"target":34962,"byteStride":24},{"buffer":9,"byteOffset":0,"byteLength":5472,"target":34963},{"buffer":9,"byteOffset":5472,"byteLength":14280,"target":34962,"byteStride":24},{"buffer":10,"byteOffset":0,"byteLength":28416,"target":34963},{"buffer":10,"byteOffset":28416,"byteLength":65568,"target":34962,"byteStride":24},{"buffer":11,"byteOffset":0,"byteLength":43248,"target":34963},{"buffer":11,"byteOffset":43248,"byteLength":98400,"target":34962,"byteStride":24},{"buffer":12,"byteOffset":0,"byteLength":3600,"target":34963},{"buffer":12,"byteOffset":3600,"byteLength":8400,"target":34962,"byteStride":24},{"buffer":13,"byteOffset":0,"byteLength":20184,"target":34963},{"buffer":13,"byteOffset":20184,"byteLength":45048,"target":34962,"byteStride":24}],"buffers":[{"uri":"data:application/octet-stream;base64,","byteLength":108},{"uri":"data:application/octet-stream;base64,","byteLength":108},{"uri":"data:application/octet-stream;base64,","byteLength":39348},{"uri":"data:application/octet-stream;base64,","byteLength":3888},{"uri":"data:application/octet-stream;base64,","byteLength":2592},{"uri":"data:application/octet-stream;base64,","byteLength":8952},{"uri":"data:application/octet-stream;base64,","byteLength":11256},{"uri":"data:application/octet-stream;base64,","byteLength":12600},{"uri":"data:application/octet-stream;base64,","byteLength":9408},{"uri":"data:application/octet-stream;base64,","byteLength":19752},{"uri":"data:application/octet-stream;base64,","byteLength":93984},{"uri":"data:application/octet-stream;base64,","byteLength":141648},{"uri":"data:application/octet-stream;base64,","byteLength":12000},{"uri":"data:application/octet-stream;base64,","byteLength":65232}],"materials":[{"pbrMetallicRoughness":{"baseColorFactor":[0.8,0.8,0.8,1],"metallicFactor":1,"roughnessFactor":0.3},"emissiveFactor":[0,0,0],"alphaMode":"OPAQUE","doubleSided":true,"name":"FullBody"},{"pbrMetallicRoughness":{"baseColorFactor":[0.8,0.8,0.8,1],"metallicFactor":1,"roughnessFactor":0.3},"emissiveFactor":[0,0,0],"alphaMode":"OPAQUE","doubleSided":true,"name":"Skin"},{"pbrMetallicRoughness":{"baseColorFactor":[0.8,0.8,0.8,1],"metallicFactor":1,"roughnessFactor":0.3},"emissiveFactor":[0,0,0],"alphaMode":"OPAQUE","doubleSided":true,"name":"FiveSenses"},{"pbrMetallicRoughness":{"baseColorFactor":[0.8,0.8,0.8,1],"metallicFactor":1,"roughnessFactor":0.3},"emissiveFactor":[0,0,0],"alphaMode":"OPAQUE","doubleSided":true,"name":"Genitals"},{"pbrMetallicRoughness":{"baseColorFactor":[0.8,0.8,0.8,1],"metallicFactor":1,"roughnessFactor":0.3},"emissiveFactor":[0,0,0],"alphaMode":"OPAQUE","doubleSided":true,"name":"Waist"},{"pbrMetallicRoughness":{"baseColorFactor":[0.8,0.8,0.8,1],"metallicFactor":1,"roughnessFactor":0.3},"emissiveFactor":[0,0,0],"alphaMode":"OPAQUE","doubleSided":true,"name":"Hips"},{"pbrMetallicRoughness":{"baseColorFactor":[0.8,0.8,0.8,1],"metallicFactor":1,"roughnessFactor":0.3},"emissiveFactor":[0,0,0],"alphaMode":"OPAQUE","doubleSided":true,"name":"Abdomen"},{"pbrMetallicRoughness":{"baseColorFactor":[0.8,0.8,0.8,1],"metallicFactor":1,"roughnessFactor":0.3},"emissiveFactor":[0,0,0],"alphaMode":"OPAQUE","doubleSided":true,"name":"Back"},{"pbrMetallicRoughness":{"baseColorFactor":[0.8,0.8,0.8,1],"metallicFactor":1,"roughnessFactor":0.3},"emissiveFactor":[0,0,0],"alphaMode":"OPAQUE","doubleSided":true,"name":"Chest"},{"pbrMetallicRoughness":{"baseColorFactor":[0.8,0.8,0.8,1],"metallicFactor":1,"roughnessFactor":0.3},"emissiveFactor":[0,0,0],"alphaMode":"OPAQUE","doubleSided":true,"name":"Shoulder"},{"pbrMetallicRoughness":{"baseColorFactor":[0.8,0.8,0.8,1],"metallicFactor":1,"roughnessFactor":0.3},"emissiveFactor":[0,0,0],"alphaMode":"OPAQUE","doubleSided":true,"name":"Legs"},{"pbrMetallicRoughness":{"baseColorFactor":[0.8,0.8,0.8,1],"metallicFactor":1,"roughnessFactor":0.3},"emissiveFactor":[0,0,0],"alphaMode":"OPAQUE","doubleSided":true,"name":"Arms"},{"pbrMetallicRoughness":{"baseColorFactor":[0.8,0.8,0.8,1],"metallicFactor":1,"roughnessFactor":0.3},"emissiveFactor":[0,0,0],"alphaMode":"OPAQUE","doubleSided":true,"name":"Neck"},{"pbrMetallicRoughness":{"baseColorFactor":[0.8,0.8,0.8,1],"metallicFactor":1,"roughnessFactor":0.3},"emissiveFactor":[0,0,0],"alphaMode":"OPAQUE","doubleSided":true,"name":"Head"}],"images":[]}